<svg id="Camada_1" data-name="Camada 1" xmlns="http://www.w3.org/2000/svg" viewBox="0 0 300 265.75"><defs><style>.cls-1{fill:#272525;}</style></defs><title>icone-farma</title><g id="_Grupo_" data-name="&lt;Grupo&gt;"><path id="_Caminho_composto_" data-name="&lt;Caminho composto&gt;" class="cls-1" d="M273.36,152.06A81.14,81.14,0,0,0,290,123.75a83.35,83.35,0,0,0,4.4-26.9A81.81,81.81,0,0,0,272.5,40.64c-14.2-15.14-33.1-23.5-53.21-23.51-29.42,0-56.3,18.44-68.5,47h0a3.76,3.76,0,0,1-7.17,0c-12.18-28.55-39.07-47-68.49-47-20.1,0-39,8.37-53.2,23.51A81.7,81.7,0,0,0,0,96.85a83.37,83.37,0,0,0,4.22,26.33,81.12,81.12,0,0,0,13.84,25.45,78.48,78.48,0,0,0,8.25,8.74L143.12,281a5.89,5.89,0,0,0,8.57,0l34.07-36.09A66.61,66.61,0,0,0,193,254a60.52,60.52,0,0,0,44.17,19.34h.48c34.68-.27,62.68-30.44,62.43-67.28a69,69,0,0,0-20.12-48.45A63.28,63.28,0,0,0,273.36,152.06Zm-126,116.33L35.3,149.64l-.2-.2-.71-.68a67.94,67.94,0,0,1-19-29.29,71.71,71.71,0,0,1-3.62-22.62A70,70,0,0,1,30.53,48.71c12-12.75,27.8-19.77,44.62-19.79,24.67,0,47.29,15.63,57.63,39.84a15.53,15.53,0,0,0,28.86,0c10.34-24.2,33-39.83,57.64-39.83,16.82,0,32.67,7,44.62,19.79a70,70,0,0,1,18.7,48.14A71.49,71.49,0,0,1,278.82,120a69.28,69.28,0,0,1-14.88,24.94h0l-.35.4-.5.53a60.87,60.87,0,0,0-26.39-6.07C202,140,174,170.19,174.28,207h0a69.86,69.86,0,0,0,5.59,27Zm90.14-2.92c-14.53.19-28.44-5.88-38.9-16.88A60.69,60.69,0,0,1,182.14,207c-.21-32.49,24.29-59.11,54.63-59.34a52.82,52.82,0,0,1,37.61,15.58,61.1,61.1,0,0,1,17.79,42.92C292.39,238.62,267.88,265.24,237.54,265.47Z" transform="translate(-0.03 -17.13)"/><path id="_Caminho_composto_2" data-name="&lt;Caminho composto&gt;" class="cls-1" d="M253.64,158.27h-33v30.94h-29v34.67h29v31h33v-31h29V189.21h-29Zm8.93,38.81h12.25V216h-29V247H228.51V216h-29V197.08h29V166.14h17.27v30.94Z" transform="translate(-0.03 -17.13)"/></g></svg>